<svg xmlns="http://www.w3.org/2000/svg" xmlns:xlink="http://www.w3.org/1999/xlink" width="24" height="24"
     viewBox="0 0 24 24" fill="none">
    <g opacity="1" transform="translate(0 0)  rotate(0)">
        <path id="Rectangle 1" fill-rule="evenodd" style="fill:#F5F5F5" opacity="0" d="M0 24L24 24L24 0L0 0L0 24Z"></path>
        <g opacity="1" transform="translate(1 1)  rotate(0)">
            <path id="Vector" style="fill:#1574FF; opacity:1;"
                  d="M11,1c-5.52285,0 -10,4.47715 -10,10c0,5.5228 4.47715,10 10,10c5.5228,0 10,-4.4772 10,-10c0,-5.52285 -4.4772,-10 -10,-10zM11,-1c6.6274,0 12,5.37258 12,12c0,6.6274 -5.3726,12 -12,12c-6.62742,0 -12,-5.3726 -12,-12c0,-6.62742 5.37258,-12 12,-12z"></path>
            <g opacity="1" transform="translate(6.149993896484375 4.33001708984375)  rotate(0)">
                <path id="Vector" style="fill:#32D1F0; opacity:1;"
                      d="M3.52,7.31c-1.39176,0 -2.52,1.12824 -2.52,2.52c0,1.3918 1.12824,2.52 2.52,2.52c1.39176,0 2.52,-1.1282 2.52,-2.52c0,-1.39176 -1.12824,-2.52 -2.52,-2.52zM3.52,5.31c2.49633,0 4.52,2.02367 4.52,4.52c0,2.4963 -2.02367,4.52 -4.52,4.52c-2.49633,0 -4.52,-2.0237 -4.52,-4.52c0,-2.49633 2.02367,-4.52 4.52,-4.52z"></path>
                <path id="Vector" style="fill:#32D1F0; opacity:1;"
                      d="M10.55,2.72001c0.06567,0 0.1307,0.00641 0.1951,0.01922c0.0644,0.01281 0.12693,0.03177 0.1876,0.0569c0.06067,0.02513 0.1183,0.05593 0.1729,0.09241c0.0546,0.03648 0.1051,0.07794 0.1515,0.12437c0.0464,0.04643 0.08787,0.09694 0.1244,0.15153c0.03647,0.05459 0.06727,0.11222 0.0924,0.17289c0.02513,0.06066 0.0441,0.12319 0.0569,0.18759c0.0128,0.0644 0.0192,0.12943 0.0192,0.19509c0,0.06566 -0.0064,0.13069 -0.0192,0.19509c-0.0128,0.0644 -0.03177,0.12693 -0.0569,0.1876c-0.02513,0.06066 -0.05593,0.11829 -0.0924,0.17288c-0.03653,0.05459 -0.078,0.10511 -0.1244,0.15154c-0.0464,0.04643 -0.0969,0.08788 -0.1515,0.12436c-0.0546,0.03648 -0.11223,0.06728 -0.1729,0.09241c-0.06067,0.02513 -0.1232,0.0441 -0.1876,0.05691c-0.0644,0.01281 -0.12943,0.01921 -0.1951,0.01921c-2.49633,0 -4.52,-2.02367 -4.52,-4.52c0,-0.06566 0.0064,-0.13069 0.01921,-0.19509c0.01281,-0.0644 0.03178,-0.12693 0.05691,-0.18759c0.02513,-0.06066 0.05593,-0.11829 0.09241,-0.17289c0.03648,-0.0546 0.07793,-0.10511 0.12436,-0.15154c0.04643,-0.04643 0.09695,-0.08788 0.15154,-0.12436c0.05459,-0.03648 0.11222,-0.06728 0.17288,-0.09241c0.06067,-0.02513 0.1232,-0.0441 0.1876,-0.05691c0.0644,-0.01281 0.12943,-0.01921 0.19509,-0.01921c0.06566,0 0.13069,0.0064 0.19509,0.01921c0.0644,0.01281 0.12693,0.03178 0.18759,0.05691c0.06067,0.02513 0.1183,0.05593 0.17289,0.09241c0.05459,0.03648 0.10511,0.07793 0.15154,0.12436c0.04643,0.04643 0.08788,0.09694 0.12436,0.15154c0.03648,0.0546 0.06728,0.11222 0.09241,0.17289c0.02513,0.06066 0.04409,0.12319 0.0569,0.18759c0.01281,0.0644 0.01922,0.12943 0.01922,0.19509c0,1.39176 1.12824,2.52 2.52,2.52z"></path>
                <path id="Vector" style="fill:#32D1F0; opacity:1;"
                      d="M8.01078,9.98507c-0.01281,0.06442 -0.03177,0.12696 -0.0569,0.18763c-0.02513,0.06067 -0.05593,0.11827 -0.09241,0.1728c-0.03648,0.0546 -0.07794,0.10513 -0.12437,0.1516c-0.04643,0.0464 -0.09694,0.08783 -0.15153,0.1243c-0.05459,0.03653 -0.11222,0.06737 -0.17289,0.0925c-0.06066,0.02507 -0.12319,0.04403 -0.18759,0.0569c-0.0644,0.0128 -0.12943,0.0192 -0.19509,0.0192c-0.06566,0 -0.13069,-0.0064 -0.19509,-0.0192c-0.0644,-0.01287 -0.12693,-0.03183 -0.1876,-0.0569c-0.06066,-0.02513 -0.11829,-0.05597 -0.17288,-0.0925c-0.05459,-0.03647 -0.10511,-0.0779 -0.15154,-0.1243c-0.04643,-0.04647 -0.08788,-0.097 -0.12436,-0.1516c-0.03648,-0.05453 -0.06728,-0.11213 -0.09241,-0.1728c-0.02513,-0.06067 -0.0441,-0.12321 -0.05691,-0.18763c-0.01281,-0.0644 -0.01921,-0.12943 -0.01921,-0.19509v-9.78998c0,-0.06566 0.0064,-0.13069 0.01921,-0.19509c0.01281,-0.0644 0.03178,-0.12693 0.05691,-0.18759c0.02513,-0.06066 0.05593,-0.11829 0.09241,-0.17289c0.03648,-0.0546 0.07793,-0.10511 0.12436,-0.15154c0.04643,-0.04643 0.09695,-0.08788 0.15154,-0.12436c0.05459,-0.03648 0.11222,-0.06728 0.17288,-0.09241c0.06067,-0.02513 0.1232,-0.0441 0.1876,-0.05691c0.0644,-0.01281 0.12943,-0.01921 0.19509,-0.01921c0.06566,0 0.13069,0.0064 0.19509,0.01921c0.0644,0.01281 0.12693,0.03178 0.18759,0.05691c0.06067,0.02513 0.1183,0.05593 0.17289,0.09241c0.05459,0.03648 0.10511,0.07793 0.15154,0.12436c0.04643,0.04643 0.08788,0.09694 0.12436,0.15154c0.03648,0.05459 0.06728,0.11222 0.09241,0.17289c0.02513,0.06066 0.04409,0.12319 0.0569,0.18759c0.01281,0.0644 0.01922,0.12943 0.01922,0.19509v9.78998c0,0.06566 -0.00641,0.13069 -0.01922,0.19509z"></path>
            </g>
        </g>
    </g>
</svg>