<svg xmlns="http://www.w3.org/2000/svg" xmlns:xlink="http://www.w3.org/1999/xlink" width="22.459991455078125" height="24.3199462890625" viewBox="0 0 22.459991455078125 24.3199462890625" fill="none"><g opacity="1"  transform="translate(0 0)  rotate(0)"><g opacity="1"  transform="translate(2.459991455078125 1)  rotate(0)"><path  id="Vector" style="fill:#1574FF; opacity:1;" d="M9.5,1c-4.69442,0 -8.5,3.80558 -8.5,8.5c0,4.6944 3.80558,8.5 8.5,8.5c4.6944,0 8.5,-3.8056 8.5,-8.5c0,-4.69442 -3.8056,-8.5 -8.5,-8.5zM9.5,-1c5.799,0 10.5,4.70101 10.5,10.5c0,5.799 -4.701,10.5 -10.5,10.5c-5.79899,0 -10.5,-4.701 -10.5,-10.5c0,-5.79899 4.70101,-10.5 10.5,-10.5z"></path><path  id="Vector" style="fill:#00D5FF; opacity:1;" d="M5.74428,20.6902l1.31,0.33c0.81818,0.2046 1.59894,0.2997 2.44072,0.2997c0.8418,0 1.6225,-0.0951 2.4425,-0.3001l1.3082,-0.3296c0.06367,-0.01607 0.1283,-0.02573 0.1939,-0.029c0.0656,-0.00333 0.13087,-0.00023 0.1958,0.0093c0.065,0.0096 0.1284,0.0254 0.1902,0.0474c0.06187,0.02207 0.121,0.04993 0.1774,0.0836c0.05633,0.03367 0.10887,0.07253 0.1576,0.1166c0.04867,0.044 0.0926,0.09233 0.1318,0.145c0.0392,0.05273 0.07287,0.10873 0.101,0.168c0.02813,0.05933 0.05023,0.12083 0.0663,0.1845c0.01607,0.06367 0.02573,0.1283 0.029,0.1939c0.00333,0.0656 0.00023,0.13087 -0.0093,0.1958c-0.0096,0.065 -0.0254,0.1284 -0.0474,0.1902c-0.02207,0.06187 -0.04993,0.121 -0.0836,0.1774c-0.03367,0.05633 -0.07253,0.10887 -0.1166,0.1576c-0.044,0.04867 -0.09233,0.0926 -0.145,0.1318c-0.05273,0.0392 -0.10873,0.07287 -0.168,0.101c-0.05933,0.0282 -0.12083,0.0503 -0.1845,0.0663l-1.3118,0.3305c-0.94,0.235 -1.9643,0.3598 -2.9275,0.3598c-0.96322,0 -1.98746,-0.1248 -2.92928,-0.3603l-1.31,-0.33c-0.06367,-0.016 -0.12516,-0.0381 -0.18448,-0.0663c-0.05932,-0.02813 -0.11532,-0.0618 -0.16801,-0.101c-0.05269,-0.0392 -0.10105,-0.08313 -0.14508,-0.1318c-0.04403,-0.04873 -0.08288,-0.10127 -0.11657,-0.1576c-0.03368,-0.0564 -0.06154,-0.11553 -0.08357,-0.1774c-0.02204,-0.0618 -0.03783,-0.1252 -0.04738,-0.1902c-0.00955,-0.06493 -0.01267,-0.1302 -0.00936,-0.1958c0.00331,-0.0656 0.01299,-0.13023 0.02902,-0.1939c0.01604,-0.06367 0.03814,-0.12517 0.06629,-0.1845c0.02815,-0.05927 0.06182,-0.11527 0.10101,-0.168c0.03919,-0.05267 0.08313,-0.101 0.13184,-0.145c0.04871,-0.04407 0.10125,-0.08293 0.15761,-0.1166c0.05637,-0.03367 0.11548,-0.06153 0.17733,-0.0836c0.06185,-0.022 0.12526,-0.0378 0.19022,-0.0474c0.06497,-0.00953 0.13024,-0.01263 0.19581,-0.0093c0.06558,0.00327 0.13021,0.01293 0.19388,0.029z"></path></g></g></svg>