<svg xmlns="http://www.w3.org/2000/svg" xmlns:xlink="http://www.w3.org/1999/xlink" width="24" height="24"
     viewBox="0 0 24 24" fill="none">
    <g opacity="1" transform="translate(0 0)  rotate(0)">
        <g opacity="1" transform="translate(0 0)  rotate(0)">
            <path id="Rectangle 1" fill-rule="evenodd" style="fill:#F5F5F5" opacity="0"
                  d="M0 24L24 24L24 0L0 0L0 24Z"></path>
        </g>
        <g opacity="1" transform="translate(1 2.300048828125)  rotate(0)">
            <path id="Vector" style="fill:#787878; opacity:1;"
                  d="M1,17.87c0,0.4768 0.12517,0.7009 0.48742,0.9517c0.20866,0.1445 0.30876,0.1783 0.56258,0.1783h17.89c0.2588,0 0.3613,-0.0347 0.5713,-0.1817c0.3567,-0.2498 0.4787,-0.4695 0.4787,-0.9483v-11.14c0,-0.32389 -0.0532,-0.47423 -0.2412,-0.71518c-0.1183,-0.15161 -0.1844,-0.20722 -0.3561,-0.29553l-8.941,-4.6105c-0.1567,-0.08242 -0.2185,-0.0996 -0.3835,-0.11052c-0.2217,-0.01466 -0.3118,0.0041 -0.5168,0.11366l-8.9661,4.71322c-0.16014,0.08356 -0.21949,0.13297 -0.33189,0.27212c-0.19691,0.24375 -0.25341,0.40029 -0.25341,0.73273zM-1,17.87v-11.04c0,-0.68232 0.28943,-1.48422 0.69763,-1.98953c0.23658,-0.29286 0.61244,-0.60582 0.95708,-0.78562l8.95392,-4.70678c0.45858,-0.2451 1.09748,-0.37812 1.59158,-0.34544c0.3705,0.02451 0.8369,0.15421 1.1681,0.32858l8.9391,4.6095c0.3718,0.19123 0.7708,0.52669 1.0182,0.84374c0.3882,0.49756 0.6644,1.27839 0.6644,1.94555v11.14c0,0.9966 -0.5971,2.0724 -1.3317,2.5867c-0.4443,0.3111 -1.1299,0.5433 -1.7183,0.5433h-17.89c-0.58219,0 -1.26064,-0.229 -1.70116,-0.534c-0.74352,-0.5149 -1.34883,-1.5984 -1.34883,-2.596z"></path>
            <path id="Vector" style="fill:#ABABAB; opacity:1;"
                  d="M15.1951,14.0092c0.0644,0.0128 0.12693,0.03177 0.1876,0.0569c0.06067,0.02513 0.1183,0.05593 0.1729,0.0924c0.0546,0.03647 0.1051,0.07793 0.1515,0.1244c0.0464,0.0464 0.08787,0.0969 0.1244,0.1515c0.03647,0.0546 0.06727,0.11223 0.0924,0.1729c0.02513,0.06067 0.0441,0.1232 0.0569,0.1876c0.0128,0.0644 0.0192,0.12943 0.0192,0.1951c0,0.06567 -0.0064,0.1307 -0.0192,0.1951c-0.0128,0.0644 -0.03177,0.12693 -0.0569,0.1876c-0.02513,0.06067 -0.05593,0.1183 -0.0924,0.1729c-0.03653,0.0546 -0.078,0.1051 -0.1244,0.1515c-0.0464,0.0464 -0.0969,0.08787 -0.1515,0.1244c-0.0546,0.03647 -0.11223,0.06727 -0.1729,0.0924c-0.06067,0.02513 -0.1232,0.0441 -0.1876,0.0569c-0.0644,0.0128 -0.12943,0.0192 -0.1951,0.0192h-8c-0.06566,0 -0.13069,-0.0064 -0.19509,-0.0192c-0.0644,-0.0128 -0.12693,-0.03177 -0.18759,-0.0569c-0.06067,-0.02513 -0.1183,-0.05593 -0.17289,-0.0924c-0.05459,-0.03653 -0.10511,-0.078 -0.15154,-0.1244c-0.04643,-0.0464 -0.08788,-0.0969 -0.12436,-0.1515c-0.03648,-0.0546 -0.06728,-0.11223 -0.09241,-0.1729c-0.02513,-0.06067 -0.0441,-0.1232 -0.05691,-0.1876c-0.01281,-0.0644 -0.01921,-0.12943 -0.01921,-0.1951c0,-0.06567 0.0064,-0.1307 0.01921,-0.1951c0.01281,-0.0644 0.03178,-0.12693 0.05691,-0.1876c0.02513,-0.06067 0.05593,-0.1183 0.09241,-0.1729c0.03648,-0.0546 0.07793,-0.1051 0.12436,-0.1515c0.04643,-0.04647 0.09695,-0.08793 0.15154,-0.1244c0.05459,-0.03647 0.11222,-0.06727 0.17289,-0.0924c0.06066,-0.02513 0.12319,-0.0441 0.18759,-0.0569c0.0644,-0.0128 0.12943,-0.0192 0.19509,-0.0192h8c0.06567,0 0.1307,0.0064 0.1951,0.0192z"></path>
        </g>
    </g>
</svg>