<svg xmlns="http://www.w3.org/2000/svg" xmlns:xlink="http://www.w3.org/1999/xlink" width="22.459991455078125"
     height="24.319976806640625" viewBox="0 0 22.459991455078125 24.319976806640625" fill="none">
    <g opacity="1" transform="translate(0 0)  rotate(0)">
        <g opacity="1" transform="translate(2.459991455078125 1)  rotate(0)">
            <path id="Vector" style="fill:#787878; opacity:1;"
                  d="M9.5,1c-4.69442,0 -8.5,3.80558 -8.5,8.5c0,4.6944 3.80558,8.5 8.5,8.5c4.6944,0 8.5,-3.8056 8.5,-8.5c0,-4.69442 -3.8056,-8.5 -8.5,-8.5zM9.5,-1c5.799,0 10.5,4.70101 10.5,10.5c0,5.799 -4.701,10.5 -10.5,10.5c-5.79899,0 -10.5,-4.701 -10.5,-10.5c0,-5.79899 4.70101,-10.5 10.5,-10.5z"></path>
            <path id="Vector" style="fill:#ABABAB; opacity:1;"
                  d="M5.74428,20.6903l1.31,0.33c0.81818,0.2045 1.59894,0.2997 2.44072,0.2997c0.8418,0 1.6225,-0.0952 2.4425,-0.3002l1.3082,-0.3295l0.4886,1.9394l-1.3118,0.3304c-0.94,0.235 -1.9643,0.3599 -2.9275,0.3599c-0.96322,0 -1.98746,-0.1249 -2.92928,-0.3603l-1.31,-0.33z"></path>
        </g>
    </g>
</svg>