<svg xmlns="http://www.w3.org/2000/svg" xmlns:xlink="http://www.w3.org/1999/xlink" width="24" height="24" viewBox="0 0 24 24" fill="none"><g opacity="1"  transform="translate(0 0)  rotate(0)"><path id="Rectangle 1" fill-rule="evenodd" style="fill:#F5F5F5" opacity="0" d="M0 24L24 24L24 0L0 0L0 24Z"></path><g opacity="1"  transform="translate(5 7)  rotate(0)"><g opacity="1"  transform="translate(1.350006103515625 0)  rotate(0)"><path  id="Vector" style="fill:#969696; opacity:1;" d="M-1,2.32c0,-1.28569 0.88654,-2.62774 1.936,-3.08201c0.32111,-0.13899 0.77328,-0.23799 1.14401,-0.23799h7.12c0.40703,0 0.8989,0.11754 1.2438,0.28139c1.0056,0.47782 1.8362,1.79077 1.8362,3.03861v0.95h-2v-0.95c0,-0.66833 -0.2115,-1.00263 -0.69455,-1.23216c-0.15535,-0.07382 -0.21404,-0.08784 -0.38545,-0.08784h-7.12c-0.15435,0 -0.20606,0.01132 -0.34953,0.07342c-0.50322,0.21783 -0.73047,0.56184 -0.73047,1.24658z"></path><path  id="Vector" style="fill:#969696; opacity:1;" d="M13.64,1.34009c0,0.19165 -0.0509,0.36866 -0.1527,0.53105l-0.0002,0.00041l-1.3598,2.16959c-0.04493,0.07177 -0.09817,0.13677 -0.1597,0.19501c-0.06147,0.05824 -0.12927,0.10787 -0.2034,0.14888c-0.07407,0.04101 -0.1521,0.07211 -0.2341,0.09329c-0.08207,0.02118 -0.16543,0.03177 -0.2501,0.03177c-0.06567,0 -0.1307,-0.00641 -0.1951,-0.01922c-0.0644,-0.01281 -0.12693,-0.03177 -0.1876,-0.0569c-0.06067,-0.02513 -0.1183,-0.05593 -0.1729,-0.09241c-0.0546,-0.03648 -0.1051,-0.07794 -0.1515,-0.12437c-0.04647,-0.04643 -0.08793,-0.09694 -0.1244,-0.15153c-0.03647,-0.05459 -0.06727,-0.11222 -0.0924,-0.17289c-0.02513,-0.06066 -0.0441,-0.12319 -0.0569,-0.18759c-0.0128,-0.0644 -0.0192,-0.12943 -0.0192,-0.19509c0,-0.19165 0.0509,-0.36866 0.1527,-0.53105l0.0001,-0.00016l1.3598,-2.16979l0.0001,-0.00006c0.04493,-0.07177 0.09817,-0.13677 0.1597,-0.19501c0.06147,-0.05824 0.12927,-0.10787 0.2034,-0.14888c0.07407,-0.04101 0.1521,-0.07211 0.2341,-0.09329c0.08207,-0.02118 0.16543,-0.03177 0.2501,-0.03177c0.06567,0 0.1307,0.0064 0.1951,0.01921c0.0644,0.01281 0.12693,0.03178 0.1876,0.05691c0.06067,0.02513 0.1183,0.05593 0.1729,0.09241c0.0546,0.03648 0.1051,0.07793 0.1515,0.12436c0.0464,0.04643 0.08787,0.09694 0.1244,0.15154c0.03647,0.05459 0.06727,0.11222 0.0924,0.17289c0.02513,0.06066 0.0441,0.1232 0.0569,0.1876c0.0128,0.0644 0.0192,0.12943 0.0192,0.19509z"></path></g><g opacity="1"  transform="translate(0 6.489990234375)  rotate(0)"><path  id="Vector" style="fill:#969696; opacity:1;" d="M13.63,1.19999c0,1.24784 -0.8306,2.56078 -1.8362,3.03861c-0.3448,0.16385 -0.8368,0.28139 -1.2438,0.28139h-7.11999c-0.40703,0 -0.89895,-0.11754 -1.2438,-0.28139c-1.00561,-0.47782 -1.8362,-1.79077 -1.8362,-3.03861v-0.96h2v0.96c0,0.66833 0.21148,1.00263 0.69455,1.23216c0.15534,0.07382 0.21404,0.08784 0.38545,0.08784h7.11999c0.1714,0 0.2301,-0.01402 0.3855,-0.08784c0.483,-0.22953 0.6945,-0.56383 0.6945,-1.23216z"></path><path  id="Vector" style="fill:#969696; opacity:1;" d="M0.848,2.69c-0.04495,0.07191 -0.09818,0.13705 -0.1597,0.19542c-0.06152,0.05837 -0.12936,0.10811 -0.20353,0.14922c-0.07417,0.04111 -0.15231,0.07228 -0.23441,0.09351c-0.0821,0.02123 -0.16555,0.03185 -0.25036,0.03185c-0.06566,0 -0.13069,-0.0064 -0.19509,-0.01921c-0.0644,-0.01281 -0.12693,-0.03178 -0.18759,-0.05691c-0.06066,-0.02513 -0.11829,-0.05593 -0.17289,-0.09241c-0.0546,-0.03648 -0.10511,-0.07793 -0.15154,-0.12436c-0.04643,-0.04643 -0.08788,-0.09695 -0.12436,-0.15154c-0.03648,-0.05459 -0.06728,-0.11222 -0.09241,-0.17289c-0.02513,-0.06066 -0.0441,-0.12319 -0.05691,-0.18759c-0.01281,-0.0644 -0.01921,-0.12943 -0.01921,-0.19509c0,-0.1912 0.05067,-0.36787 0.152,-0.53l0.00005,-0.00008l1.34984,-2.15975l0.00011,-0.00017c0.04495,-0.07191 0.09818,-0.13705 0.15969,-0.19542c0.06152,-0.05837 0.12936,-0.10811 0.20354,-0.14922c0.07417,-0.04111 0.15231,-0.07228 0.23441,-0.09351c0.08211,-0.02123 0.16556,-0.03185 0.25036,-0.03185c0.06566,0 0.13069,0.0064 0.19509,0.01921c0.0644,0.01281 0.12693,0.03178 0.18759,0.05691c0.06067,0.02513 0.1183,0.05593 0.17289,0.09241c0.05459,0.03648 0.10511,0.07793 0.15154,0.12436c0.04643,0.04643 0.08788,0.09694 0.12436,0.15154c0.03648,0.05459 0.06728,0.11222 0.09241,0.17289c0.02513,0.06066 0.0441,0.12319 0.05691,0.18759c0.01281,0.0644 0.01921,0.12943 0.01921,0.19509c0,0.1912 -0.05067,0.36786 -0.152,0.53z"></path></g></g></g></svg>