<svg xmlns="http://www.w3.org/2000/svg" xmlns:xlink="http://www.w3.org/1999/xlink" width="32" height="32"
     viewBox="0 0 32 32" fill="none">
    <g opacity="1" transform="translate(0 0)  rotate(0)">
        <path id="Rectangle 22" fill-rule="evenodd" style="fill:#F6F6F6" opacity="0"
              d="M0 32L32 32L32 0L0 0L0 32Z"></path>
        <g opacity="1" transform="translate(6 8)  rotate(0)">
            <path id="Vector" fill-rule="evenodd" style="fill:#1574FF" opacity="0.5"
                  d="M12.33 6.16L3.49 0.37C1.99 -0.6 0 0.45 0 2.21L0 13.79C0 15.55 1.99 16.6 3.49 15.63L12.33 9.84C13.66 8.96 13.66 7.04 12.33 6.16Z"></path>
            <path id="Vector" fill-rule="evenodd" style="fill:#1574FF" opacity="0.5"
                  d="M19 6.16L10.15 0.37C8.65003 -0.6 6.66003 0.45 6.66003 2.21L6.66003 13.79C6.66003 15.55 8.66003 16.6 10.15 15.63L19 9.84C20.33 8.96 20.33 7.04 19 6.16Z"></path>
        </g>
    </g>
</svg>