<svg xmlns="http://www.w3.org/2000/svg" xmlns:xlink="http://www.w3.org/1999/xlink" width="56" height="56"
     viewBox="0 0 56 56" fill="none">
    <g opacity="1" transform="translate(0 0)  rotate(0)">
        <path id="Rectangle 26" fill-rule="evenodd" style="fill:#C4C4C4" opacity="0"
              d="M0 56L56 56L56 0L0 0L0 56Z"></path>
        <g opacity="1" transform="translate(4 4)  rotate(0)">
            <path id="Vector" fill-rule="evenodd" style="fill:#1574FF" opacity="1"
                  d="M24 0C10.75 0 0 10.75 0 24C0 37.25 10.75 48 24 48C37.25 48 48 37.25 48 24C48 10.75 37.25 0 24 0Z"></path>
            <path id="Vector" fill-rule="evenodd" style="fill:#FFFFFF" opacity="1"
                  d="M33.89 21.53L22.15 13.71C20.18 12.39 17.53 13.8 17.53 16.18L17.53 31.82C17.53 34.1899 20.17 35.61 22.15 34.29L33.88 26.47C35.65 25.3 35.65 22.7 33.89 21.53Z"></path>

        </g>
    </g>
</svg>