<svg xmlns="http://www.w3.org/2000/svg" xmlns:xlink="http://www.w3.org/1999/xlink" width="32" height="32" viewBox="0 0 32 32" fill="none"><g opacity="1"  transform="translate(0 0)  rotate(0)"><path id="Rectangle 22" fill-rule="evenodd" style="fill:#F6F6F6" opacity="0" d="M0 32L32 32L32 0L0 0L0 32Z"></path><g opacity="1"  transform="translate(6 8)  rotate(0)"><path id="Vector" fill-rule="evenodd" style="fill:#1574FF" opacity="0.3" d="M7.67001 9.84L16.51 15.63C18.01 16.6 20 15.55 20 13.79L20 2.21C20 0.45 18.01 -0.6 16.51 0.37L7.67001 6.16C6.34001 7.04 6.34001 8.96 7.67001 9.84Z"></path><path id="Vector" fill-rule="evenodd" style="fill:#1574FF" opacity="0.3" d="M1 9.84L9.85 15.63C11.35 16.6 13.34 15.55 13.34 13.79L13.34 2.21C13.34 0.45 11.34 -0.6 9.85 0.37L1 6.16C-0.33 7.04 -0.33 8.96 1 9.84Z"></path></g></g></svg>