<svg xmlns="http://www.w3.org/2000/svg" xmlns:xlink="http://www.w3.org/1999/xlink" width="24" height="24"
     viewBox="0 0 24 24" fill="none">
    <g opacity="1" transform="translate(0 0)  rotate(0)">
        <path id="Rectangle 1" fill-rule="evenodd" style="fill:#F5F5F5" opacity="0"
              d="M0 24L24 24L24 0L0 0L0 24Z"></path>
        <g opacity="1" transform="translate(5 7)  rotate(0)">
            <path id="Vector" style="fill:#414141; opacity:1;"
                  d="M3.47436,10.655l-4.23,-4.88001c-0.03909,-0.0451 -0.07387,-0.09331 -0.10432,-0.14463c-0.03046,-0.05133 -0.05612,-0.10495 -0.07698,-0.16087c-0.02086,-0.05591 -0.03658,-0.11324 -0.04718,-0.17198c-0.01059,-0.05873 -0.01589,-0.11794 -0.01588,-0.17762c0.00001,-0.05968 0.00531,-0.11889 0.01592,-0.17762c0.01061,-0.05873 0.02635,-0.11606 0.04722,-0.17197c0.02087,-0.05591 0.04654,-0.10953 0.07701,-0.16084c0.03047,-0.05132 0.06526,-0.09953 0.10436,-0.14462l4.44,-5.11999l1.51098,1.31031l-4.44,5.12001l-0.75549,-0.65516l0.75564,-0.65499l4.23,4.88z"></path>
            <path id="Vector" style="fill:#414141; opacity:1;"
                  d="M14.1951,4.13921c0.0644,0.01281 0.12693,0.03178 0.1876,0.05691c0.06067,0.02513 0.1183,0.05593 0.1729,0.09241c0.0546,0.03647 0.1051,0.07793 0.1515,0.12436c0.0464,0.04643 0.08787,0.09694 0.1244,0.15153c0.03647,0.0546 0.06727,0.11223 0.0924,0.17289c0.02513,0.06067 0.0441,0.1232 0.0569,0.18759c0.0128,0.0644 0.0192,0.12943 0.0192,0.1951c0,0.06566 -0.0064,0.13069 -0.0192,0.19509c-0.0128,0.06439 -0.03177,0.12692 -0.0569,0.18759c-0.02513,0.06066 -0.05593,0.11829 -0.0924,0.17288c-0.03653,0.0546 -0.078,0.10511 -0.1244,0.15154c-0.0464,0.04643 -0.0969,0.08789 -0.1515,0.12436c-0.0546,0.03648 -0.11223,0.06728 -0.1729,0.09241c-0.06067,0.02513 -0.1232,0.0441 -0.1876,0.05691c-0.0644,0.01281 -0.12943,0.01922 -0.1951,0.01922h-13.01001c-0.06566,0 -0.13069,-0.00641 -0.19509,-0.01922c-0.0644,-0.01281 -0.12693,-0.03178 -0.18759,-0.05691c-0.06066,-0.02513 -0.11829,-0.05593 -0.17289,-0.09241c-0.0546,-0.03647 -0.10511,-0.07793 -0.15154,-0.12436c-0.04643,-0.04643 -0.08788,-0.09694 -0.12436,-0.15154c-0.03648,-0.05459 -0.06728,-0.11222 -0.09241,-0.17288c-0.02513,-0.06067 -0.0441,-0.1232 -0.05691,-0.1876c-0.01281,-0.06439 -0.01921,-0.12942 -0.01921,-0.19508c0,-0.06567 0.0064,-0.1307 0.01921,-0.1951c0.01281,-0.06439 0.03178,-0.12692 0.05691,-0.18759c0.02513,-0.06066 0.05593,-0.11829 0.09241,-0.17289c0.03648,-0.05459 0.07793,-0.1051 0.12436,-0.15153c0.04643,-0.04643 0.09694,-0.08789 0.15154,-0.12436c0.0546,-0.03648 0.11222,-0.06728 0.17289,-0.09241c0.06066,-0.02513 0.12319,-0.0441 0.18759,-0.05691c0.0644,-0.01281 0.12943,-0.01921 0.19509,-0.01921h13.01001c0.06567,0 0.1307,0.0064 0.1951,0.01921z"></path>
        </g>
    </g>
</svg>