<svg xmlns="http://www.w3.org/2000/svg" xmlns:xlink="http://www.w3.org/1999/xlink" width="24" height="24"
     viewBox="0 0 24 24" fill="none">
    <g opacity="1" transform="translate(0 0)  rotate(0)">
        <path id="Rectangle 1" fill-rule="evenodd" style="fill:#F5F5F5" opacity="0"
              d="M0 24L24 24L24 0L0 0L0 24Z"></path>
        <g opacity="1" transform="translate(4 6)  rotate(0)">
            <path id="Vector" style="fill:#969696; opacity:1;"
                  d="M16.1951,-0.98078c0.0644,0.01281 0.12693,0.03178 0.1876,0.05691c0.06067,0.02513 0.1183,0.05593 0.1729,0.09241c0.0546,0.03648 0.1051,0.07793 0.1515,0.12436c0.0464,0.04643 0.08787,0.09694 0.1244,0.15154c0.03647,0.05459 0.06727,0.11222 0.0924,0.17289c0.02513,0.06066 0.0441,0.12319 0.0569,0.18759c0.0128,0.0644 0.0192,0.12943 0.0192,0.19509c0,0.06566 -0.0064,0.13069 -0.0192,0.19509c-0.0128,0.0644 -0.03177,0.12693 -0.0569,0.18759c-0.02513,0.06066 -0.05593,0.11829 -0.0924,0.17289c-0.03653,0.0546 -0.078,0.10511 -0.1244,0.15154c-0.0464,0.04643 -0.0969,0.08788 -0.1515,0.12436c-0.0546,0.03648 -0.11223,0.06728 -0.1729,0.09241c-0.06067,0.02513 -0.1232,0.0441 -0.1876,0.05691c-0.0644,0.01281 -0.12943,0.01921 -0.1951,0.01921h-16c-0.06566,0 -0.13069,-0.0064 -0.19509,-0.01921c-0.0644,-0.01281 -0.12693,-0.03178 -0.18759,-0.05691c-0.06066,-0.02513 -0.11829,-0.05593 -0.17289,-0.09241c-0.0546,-0.03648 -0.10511,-0.07793 -0.15154,-0.12436c-0.04643,-0.04643 -0.08788,-0.09694 -0.12436,-0.15154c-0.03648,-0.05459 -0.06728,-0.11222 -0.09241,-0.17289c-0.02513,-0.06066 -0.0441,-0.12319 -0.05691,-0.18759c-0.01281,-0.0644 -0.01921,-0.12943 -0.01921,-0.19509c0,-0.06566 0.0064,-0.13069 0.01921,-0.19509c0.01281,-0.0644 0.03178,-0.12693 0.05691,-0.18759c0.02513,-0.06066 0.05593,-0.11829 0.09241,-0.17289c0.03648,-0.0546 0.07793,-0.10511 0.12436,-0.15154c0.04643,-0.04643 0.09694,-0.08788 0.15154,-0.12436c0.05459,-0.03648 0.11222,-0.06728 0.17289,-0.09241c0.06066,-0.02513 0.12319,-0.0441 0.18759,-0.05691c0.0644,-0.01281 0.12943,-0.01921 0.19509,-0.01921h16c0.06567,0 0.1307,0.0064 0.1951,0.01921z"></path>
            <path id="Vector" style="fill:#969696; opacity:1;"
                  d="M12.6351,4.98919c0.0644,0.01281 0.12693,0.03177 0.1876,0.0569c0.06067,0.02513 0.1183,0.05593 0.1729,0.09241c0.0546,0.03648 0.1051,0.07793 0.1515,0.12436c0.04647,0.04643 0.08793,0.09695 0.1244,0.15154c0.03647,0.05459 0.06727,0.11222 0.0924,0.17289c0.02513,0.06066 0.0441,0.12319 0.0569,0.18759c0.0128,0.0644 0.0192,0.12943 0.0192,0.19509c0,0.06566 -0.0064,0.13069 -0.0192,0.19509c-0.0128,0.0644 -0.03177,0.12693 -0.0569,0.18759c-0.02513,0.06067 -0.05593,0.1183 -0.0924,0.17289c-0.03647,0.05459 -0.07793,0.10511 -0.1244,0.15154c-0.0464,0.04643 -0.0969,0.08788 -0.1515,0.12436c-0.0546,0.03648 -0.11223,0.06728 -0.1729,0.09241c-0.06067,0.02513 -0.1232,0.0441 -0.1876,0.05691c-0.0644,0.01281 -0.12943,0.01921 -0.1951,0.01921h-12.44c-0.06566,0 -0.13069,-0.0064 -0.19509,-0.01921c-0.0644,-0.01281 -0.12693,-0.03178 -0.18759,-0.05691c-0.06066,-0.02513 -0.11829,-0.05593 -0.17289,-0.09241c-0.0546,-0.03648 -0.10511,-0.07793 -0.15154,-0.12436c-0.04643,-0.04643 -0.08788,-0.09695 -0.12436,-0.15154c-0.03648,-0.05459 -0.06728,-0.11222 -0.09241,-0.17289c-0.02513,-0.06066 -0.0441,-0.12319 -0.05691,-0.18759c-0.01281,-0.0644 -0.01921,-0.12943 -0.01921,-0.19509c0,-0.06566 0.0064,-0.13069 0.01921,-0.19509c0.01281,-0.0644 0.03178,-0.12693 0.05691,-0.18759c0.02513,-0.06067 0.05593,-0.1183 0.09241,-0.17289c0.03648,-0.05459 0.07793,-0.10511 0.12436,-0.15154c0.04643,-0.04643 0.09694,-0.08788 0.15154,-0.12436c0.05459,-0.03648 0.11222,-0.06728 0.17289,-0.09241c0.06066,-0.02513 0.12319,-0.04409 0.18759,-0.0569c0.0644,-0.01281 0.12943,-0.01922 0.19509,-0.01922h12.44c0.06567,0 0.1307,0.00641 0.1951,0.01922z"></path>
            <path id="Vector" style="fill:#969696; opacity:1;"
                  d="M16.1951,11.0192c0.0644,0.0128 0.12693,0.03177 0.1876,0.0569c0.06067,0.02513 0.1183,0.05593 0.1729,0.0924c0.0546,0.03647 0.1051,0.07793 0.1515,0.1244c0.0464,0.0464 0.08787,0.0969 0.1244,0.1515c0.03647,0.0546 0.06727,0.11223 0.0924,0.1729c0.02513,0.06067 0.0441,0.1232 0.0569,0.1876c0.0128,0.0644 0.0192,0.12943 0.0192,0.1951c0,0.06567 -0.0064,0.1307 -0.0192,0.1951c-0.0128,0.0644 -0.03177,0.12693 -0.0569,0.1876c-0.02513,0.06067 -0.05593,0.1183 -0.0924,0.1729c-0.03653,0.0546 -0.078,0.1051 -0.1244,0.1515c-0.0464,0.0464 -0.0969,0.08787 -0.1515,0.1244c-0.0546,0.03647 -0.11223,0.06727 -0.1729,0.0924c-0.06067,0.02513 -0.1232,0.0441 -0.1876,0.0569c-0.0644,0.0128 -0.12943,0.0192 -0.1951,0.0192h-1.78c-0.06567,0 -0.1307,-0.0064 -0.1951,-0.0192c-0.0644,-0.0128 -0.12693,-0.03177 -0.1876,-0.0569c-0.06067,-0.02513 -0.1183,-0.05593 -0.1729,-0.0924c-0.0546,-0.03653 -0.1051,-0.078 -0.1515,-0.1244c-0.04647,-0.0464 -0.08793,-0.0969 -0.1244,-0.1515c-0.03647,-0.0546 -0.06727,-0.11223 -0.0924,-0.1729c-0.02513,-0.06067 -0.0441,-0.1232 -0.0569,-0.1876c-0.0128,-0.0644 -0.0192,-0.12943 -0.0192,-0.1951c0,-0.06567 0.0064,-0.1307 0.0192,-0.1951c0.0128,-0.0644 0.03177,-0.12693 0.0569,-0.1876c0.02513,-0.06067 0.05593,-0.1183 0.0924,-0.1729c0.03647,-0.0546 0.07793,-0.1051 0.1244,-0.1515c0.0464,-0.04647 0.0969,-0.08793 0.1515,-0.1244c0.0546,-0.03647 0.11223,-0.06727 0.1729,-0.0924c0.06067,-0.02513 0.1232,-0.0441 0.1876,-0.0569c0.0644,-0.0128 0.12943,-0.0192 0.1951,-0.0192h1.78c0.06567,0 0.1307,0.0064 0.1951,0.0192z"></path>
            <path id="Vector" style="fill:#969696; opacity:1;"
                  d="M9.97512,11.0192c0.06439,0.0128 0.12691,0.03177 0.18758,0.0569c0.06067,0.02513 0.1183,0.05593 0.1729,0.0924c0.0546,0.03647 0.1051,0.07793 0.1515,0.1244c0.04647,0.0464 0.08793,0.0969 0.1244,0.1515c0.03647,0.0546 0.06727,0.11223 0.0924,0.1729c0.02513,0.06067 0.0441,0.1232 0.0569,0.1876c0.0128,0.0644 0.0192,0.12943 0.0192,0.1951c0,0.06567 -0.0064,0.1307 -0.0192,0.1951c-0.0128,0.0644 -0.03177,0.12693 -0.0569,0.1876c-0.02513,0.06067 -0.05593,0.1183 -0.0924,0.1729c-0.03647,0.0546 -0.07793,0.1051 -0.1244,0.1515c-0.0464,0.0464 -0.0969,0.08787 -0.1515,0.1244c-0.0546,0.03647 -0.11223,0.06727 -0.1729,0.0924c-0.06067,0.02513 -0.12319,0.0441 -0.18758,0.0569c-0.0644,0.0128 -0.12943,0.0192 -0.19509,0.0192h-9.78003c-0.06566,0 -0.13069,-0.0064 -0.19509,-0.0192c-0.0644,-0.0128 -0.12693,-0.03177 -0.18759,-0.0569c-0.06066,-0.02513 -0.11829,-0.05593 -0.17289,-0.0924c-0.0546,-0.03653 -0.10511,-0.078 -0.15154,-0.1244c-0.04643,-0.0464 -0.08788,-0.0969 -0.12436,-0.1515c-0.03648,-0.0546 -0.06728,-0.11223 -0.09241,-0.1729c-0.02513,-0.06067 -0.0441,-0.1232 -0.05691,-0.1876c-0.01281,-0.0644 -0.01921,-0.12943 -0.01921,-0.1951c0,-0.06567 0.0064,-0.1307 0.01921,-0.1951c0.01281,-0.0644 0.03178,-0.12693 0.05691,-0.1876c0.02513,-0.06067 0.05593,-0.1183 0.09241,-0.1729c0.03648,-0.0546 0.07793,-0.1051 0.12436,-0.1515c0.04643,-0.04647 0.09694,-0.08793 0.15154,-0.1244c0.05459,-0.03647 0.11222,-0.06727 0.17289,-0.0924c0.06066,-0.02513 0.12319,-0.0441 0.18759,-0.0569c0.0644,-0.0128 0.12943,-0.0192 0.19509,-0.0192h9.78003c0.06566,0 0.13069,0.0064 0.19509,0.0192z"></path>
        </g>
    </g>
</svg>