<svg xmlns="http://www.w3.org/2000/svg" xmlns:xlink="http://www.w3.org/1999/xlink" width="24" height="24"
     viewBox="0 0 24 24" fill="none">
    <g opacity="1" transform="translate(0 0)  rotate(0)">
        <path id="Rectangle 1" fill-rule="evenodd" style="fill:#F5F5F5" opacity="0"
              d="M0 24L24 24L24 0L0 0L0 24Z"></path>
        <g opacity="1" transform="translate(4 4)  rotate(0)">
            <path id="Vector" style="fill:#414141; opacity:1;"
                  d="M8,1c-3.86599,0 -7,3.13401 -7,7c0,3.866 3.13401,7 7,7c3.866,0 7,-3.134 7,-7c0,-3.86599 -3.134,-7 -7,-7zM8,-1c4.9706,0 9,4.02944 9,9c0,4.9706 -4.0294,9 -9,9c-4.97056,0 -9,-4.0294 -9,-9c0,-4.97056 4.02944,-9 9,-9z"></path>
            <path id="Vector" style="fill:#787878; opacity:1;"
                  d="M5.72078,9.04506c-0.01281,0.0644 -0.03178,0.12693 -0.05691,0.1876c-0.02513,0.06066 -0.05593,0.11829 -0.09241,0.17288c-0.03648,0.0546 -0.07793,0.10511 -0.12436,0.15154c-0.04643,0.04643 -0.09695,0.08788 -0.15154,0.12436c-0.05459,0.03648 -0.11222,0.06728 -0.17289,0.09241c-0.06066,0.02513 -0.12319,0.0441 -0.18759,0.05691c-0.0644,0.01281 -0.12943,0.01922 -0.19509,0.01922c-0.06566,0 -0.13069,-0.00641 -0.19509,-0.01922c-0.0644,-0.01281 -0.12693,-0.03178 -0.18759,-0.05691c-0.06067,-0.02513 -0.1183,-0.05593 -0.17289,-0.09241c-0.05459,-0.03647 -0.10511,-0.07793 -0.15154,-0.12436c-0.04643,-0.04643 -0.08788,-0.09694 -0.12436,-0.15153c-0.03648,-0.0546 -0.06728,-0.11223 -0.09241,-0.17289c-0.02513,-0.06067 -0.0441,-0.1232 -0.05691,-0.1876c-0.01281,-0.06439 -0.01921,-0.12942 -0.01921,-0.19508v-1.76001c0,-0.06567 0.0064,-0.1307 0.01921,-0.19509c0.01281,-0.0644 0.03178,-0.12693 0.05691,-0.1876c0.02513,-0.06066 0.05593,-0.11829 0.09241,-0.17289c0.03648,-0.05459 0.07793,-0.1051 0.12436,-0.15153c0.04643,-0.04643 0.09695,-0.08789 0.15154,-0.12436c0.05459,-0.03648 0.11222,-0.06728 0.17289,-0.09241c0.06066,-0.02513 0.12319,-0.0441 0.18759,-0.05691c0.0644,-0.01281 0.12943,-0.01921 0.19509,-0.01921c0.06566,0 0.13069,0.0064 0.19509,0.01921c0.0644,0.01281 0.12693,0.03178 0.18759,0.05691c0.06067,0.02513 0.1183,0.05593 0.17289,0.09241c0.05459,0.03647 0.10511,0.07793 0.15154,0.12436c0.04643,0.04643 0.08788,0.09694 0.12436,0.15153c0.03648,0.0546 0.06728,0.11223 0.09241,0.17289c0.02513,0.06067 0.04409,0.1232 0.0569,0.1876c0.01281,0.06439 0.01922,0.12942 0.01922,0.19509v1.76001c0,0.06566 -0.0064,0.13069 -0.01921,0.19508z"></path>
            <path id="Vector" style="fill:#787878; opacity:1;"
                  d="M12.5808,9.04506c-0.0128,0.0644 -0.03177,0.12693 -0.0569,0.1876c-0.02513,0.06066 -0.05593,0.11829 -0.0924,0.17288c-0.03647,0.0546 -0.07793,0.10511 -0.1244,0.15154c-0.0464,0.04643 -0.0969,0.08788 -0.1515,0.12436c-0.0546,0.03648 -0.11223,0.06728 -0.1729,0.09241c-0.06067,0.02513 -0.1232,0.0441 -0.1876,0.05691c-0.0644,0.01281 -0.12943,0.01922 -0.1951,0.01922c-0.06567,0 -0.1307,-0.00641 -0.1951,-0.01922c-0.0644,-0.01281 -0.12693,-0.03178 -0.1876,-0.05691c-0.06067,-0.02513 -0.1183,-0.05593 -0.1729,-0.09241c-0.0546,-0.03647 -0.1051,-0.07793 -0.1515,-0.12436c-0.0464,-0.04643 -0.08787,-0.09694 -0.1244,-0.15153c-0.03647,-0.0546 -0.06727,-0.11223 -0.0924,-0.17289c-0.02513,-0.06067 -0.0441,-0.1232 -0.0569,-0.1876c-0.0128,-0.06439 -0.0192,-0.12942 -0.0192,-0.19508v-1.76001c0,-0.06567 0.0064,-0.1307 0.0192,-0.19509c0.0128,-0.0644 0.03177,-0.12693 0.0569,-0.1876c0.02513,-0.06066 0.05593,-0.11829 0.0924,-0.17289c0.03653,-0.05459 0.078,-0.1051 0.1244,-0.15153c0.0464,-0.04643 0.0969,-0.08789 0.1515,-0.12436c0.0546,-0.03648 0.11223,-0.06728 0.1729,-0.09241c0.06067,-0.02513 0.1232,-0.0441 0.1876,-0.05691c0.0644,-0.01281 0.12943,-0.01921 0.1951,-0.01921c0.06567,0 0.1307,0.0064 0.1951,0.01921c0.0644,0.01281 0.12693,0.03178 0.1876,0.05691c0.06067,0.02513 0.1183,0.05593 0.1729,0.09241c0.0546,0.03647 0.1051,0.07793 0.1515,0.12436c0.04647,0.04643 0.08793,0.09694 0.1244,0.15153c0.03647,0.0546 0.06727,0.11223 0.0924,0.17289c0.02513,0.06067 0.0441,0.1232 0.0569,0.1876c0.0128,0.06439 0.0192,0.12942 0.0192,0.19509v1.76001c0,0.06566 -0.0064,0.13069 -0.0192,0.19508z"></path>
            <path id="Vector" style="fill:#787878; opacity:1;"
                  d="M9.09077,10.7551c-0.01281,0.0644 -0.03178,0.12693 -0.05691,0.1876c-0.02513,0.06067 -0.05593,0.1183 -0.09241,0.1729c-0.03647,0.0546 -0.07793,0.10513 -0.12436,0.1516c-0.04643,0.0464 -0.09694,0.08783 -0.15153,0.1243c-0.0546,0.03647 -0.11223,0.06727 -0.17289,0.0924c-0.06067,0.02513 -0.1232,0.0441 -0.1876,0.0569c-0.06439,0.01287 -0.12942,0.0193 -0.19508,0.0193c-0.06567,0 -0.1307,-0.00643 -0.1951,-0.0193c-0.06439,-0.0128 -0.12692,-0.03177 -0.18759,-0.0569c-0.06066,-0.02513 -0.11829,-0.05593 -0.17289,-0.0924c-0.05459,-0.03647 -0.1051,-0.0779 -0.15153,-0.1243c-0.04643,-0.04647 -0.08789,-0.097 -0.12437,-0.1516c-0.03647,-0.0546 -0.06728,-0.11223 -0.09241,-0.1729c-0.02513,-0.06067 -0.04409,-0.1232 -0.0569,-0.1876c-0.01281,-0.0644 -0.01922,-0.1294 -0.01921,-0.195v-5.1901c-0.00001,-0.06567 0.0064,-0.1307 0.01921,-0.1951c0.01281,-0.06439 0.03177,-0.12692 0.0569,-0.18759c0.02513,-0.06066 0.05594,-0.11829 0.09241,-0.17289c0.03648,-0.05459 0.07794,-0.1051 0.12437,-0.15153c0.04643,-0.04643 0.09694,-0.08789 0.15153,-0.12436c0.0546,-0.03648 0.11223,-0.06728 0.17289,-0.09241c0.06067,-0.02513 0.1232,-0.0441 0.18759,-0.05691c0.0644,-0.01281 0.12943,-0.01921 0.1951,-0.01921c0.06566,0 0.13069,0.0064 0.19508,0.01921c0.0644,0.01281 0.12693,0.03178 0.1876,0.05691c0.06066,0.02513 0.11829,0.05593 0.17288,0.09241c0.0546,0.03647 0.10511,0.07793 0.15154,0.12436c0.04643,0.04643 0.08788,0.09694 0.12436,0.15153c0.03648,0.0546 0.06728,0.11223 0.09241,0.17289c0.02513,0.06067 0.0441,0.1232 0.05691,0.18759c0.01281,0.0644 0.01922,0.12943 0.01922,0.1951v5.1901c0,0.0656 -0.00641,0.1306 -0.01922,0.195z"></path>
        </g>
    </g>
</svg>