<svg xmlns="http://www.w3.org/2000/svg" xmlns:xlink="http://www.w3.org/1999/xlink" width="24" height="24"
     viewBox="0 0 24 24" fill="none">
    <g opacity="1" transform="translate(0 0)  rotate(0)">
        <path id="Rectangle 1" fill-rule="evenodd" style="fill:#F5F5F5" opacity="0"
              d="M0 24L24 24L24 0L0 0L0 24Z"></path>
        <g opacity="1" transform="translate(4.5 10.5)  rotate(0)">
            <path id="Vector" fill-rule="evenodd" style="fill:#808080" opacity="1"
                  d="M1.5 0C0.67 0 0 0.67 0 1.5C0 2.33 0.67 3 1.5 3C2.33 3 3 2.33 3 1.5C3 0.67 2.33 0 1.5 0Z"></path>
            <path id="Vector" fill-rule="evenodd" style="fill:#808080" opacity="1"
                  d="M7.5 0C6.67 0 6 0.67 6 1.5C6 2.33 6.67 3 7.5 3C8.33 3 9 2.33 9 1.5C9 0.67 8.33 0 7.5 0Z"></path>
            <path id="Vector" fill-rule="evenodd" style="fill:#808080" opacity="1"
                  d="M13.5 0C12.67 0 12 0.67 12 1.5C12 2.33 12.67 3 13.5 3C14.33 3 15 2.33 15 1.5C15 0.67 14.33 0 13.5 0Z"></path>
        </g>
    </g>
</svg>