<svg xmlns="http://www.w3.org/2000/svg" xmlns:xlink="http://www.w3.org/1999/xlink" width="24" height="24"
     viewBox="0 0 24 24" fill="none">
    <g opacity="1" transform="translate(0 0)  rotate(0)">
        <path id="Rectangle 1" fill-rule="evenodd" style="fill:#F5F5F5" opacity="0"
              d="M0 24L24 24L24 0L0 0L0 24Z"></path>
        <g opacity="1" transform="translate(5 6)  rotate(0)">
            <path id="Vector" style="fill:#414141; opacity:1;"
                  d="M4.18999,3.4v-1.8c0,-0.19045 -0.00954,-0.21527 -0.13178,-0.36553c-0.16645,-0.20459 -0.2246,-0.23447 -0.49822,-0.23447h-1.85c-0.29304,0 -0.35627,0.03396 -0.51923,0.25207c-0.10694,0.14313 -0.11285,0.1599 -0.11084,0.33657l0.00007,1.81136c0,0.19045 0.00953,0.21527 0.13178,0.36553c0.16644,0.20459 0.2246,0.23447 0.49822,0.23447h1.84c0.28976,0 0.35357,-0.03384 0.51964,-0.24984c0.11231,-0.14607 0.12036,-0.16806 0.12036,-0.35016zM6.18999,3.4c0,0.53643 -0.2353,1.17964 -0.53482,1.56921c-0.43086,0.56039 -1.31797,1.03079 -2.10518,1.03079h-1.84c-0.75737,0 -1.61866,-0.44253 -2.04965,-0.97231c-0.3234,-0.39751 -0.58035,-1.06621 -0.58035,-1.62769l0.00006,-1.78864c-0.00602,-0.53009 0.2187,-1.16848 0.50853,-1.55638c0.42831,-0.57325 1.3253,-1.05498 2.12141,-1.05498h1.85c0.75736,0 1.61865,0.44253 2.04965,0.97231c0.3234,0.39751 0.58035,1.06621 0.58035,1.62769z"></path>
            <path id="Vector" style="fill:#414141; opacity:1;"
                  d="M13,3.4v-1.8c0,-0.19045 -0.0095,-0.21527 -0.1318,-0.36553c-0.1664,-0.20459 -0.2246,-0.23447 -0.4982,-0.23447h-1.84c-0.2897,0 -0.3536,0.03384 -0.5196,0.24984c-0.11234,0.14607 -0.12039,0.16806 -0.12039,0.35016v1.8c0,0.19045 0.00954,0.21527 0.13179,0.36553c0.1664,0.20459 0.2246,0.23447 0.4982,0.23447h1.84c0.2898,0 0.3536,-0.03384 0.5197,-0.24984c0.1123,-0.14607 0.1203,-0.16806 0.1203,-0.35016zM15,3.4c0,0.53643 -0.2353,1.17964 -0.5348,1.56921c-0.4309,0.56039 -1.318,1.03079 -2.1052,1.03079h-1.84c-0.75735,0 -1.61864,-0.44253 -2.04964,-0.97231c-0.32339,-0.39751 -0.58035,-1.06621 -0.58035,-1.62769v-1.8c0,-0.53643 0.2353,-1.17964 0.53482,-1.56921c0.43086,-0.5604 1.31797,-1.03079 2.10517,-1.03079h1.84c0.7574,0 1.6187,0.44253 2.0497,0.97231c0.3234,0.39751 0.5803,1.06621 0.5803,1.62769z"></path>
            <path id="Vector" style="fill:#797979; opacity:1;"
                  d="M13.4751,7.43926c0.0644,0.01281 0.12693,0.03177 0.1876,0.0569c0.06067,0.02513 0.1183,0.05594 0.1729,0.09241c0.0546,0.03648 0.1051,0.07794 0.1515,0.12437c0.0464,0.04643 0.08787,0.09694 0.1244,0.15153c0.03647,0.0546 0.06727,0.11223 0.0924,0.17289c0.02513,0.06066 0.0441,0.12319 0.0569,0.18759c0.0128,0.0644 0.0192,0.12943 0.0192,0.19509c0,0.06567 -0.0064,0.1307 -0.0192,0.19509c-0.0128,0.0644 -0.03177,0.12693 -0.0569,0.1876c-0.02513,0.06066 -0.05593,0.11829 -0.0924,0.17288c-0.03653,0.0546 -0.078,0.10511 -0.1244,0.15154c-0.0464,0.04643 -0.0969,0.08788 -0.1515,0.12436c-0.0546,0.03648 -0.11223,0.06728 -0.1729,0.09241c-0.06067,0.02513 -0.1232,0.0441 -0.1876,0.05691c-0.0644,0.01281 -0.12943,0.01921 -0.1951,0.01921h-13.28c-0.06566,0 -0.13069,-0.0064 -0.19509,-0.01921c-0.0644,-0.01281 -0.12693,-0.03178 -0.18759,-0.05691c-0.06066,-0.02513 -0.11829,-0.05593 -0.17289,-0.09241c-0.0546,-0.03648 -0.10511,-0.07793 -0.15154,-0.12436c-0.04643,-0.04643 -0.08788,-0.09694 -0.12436,-0.15154c-0.03648,-0.05459 -0.06728,-0.11222 -0.09241,-0.17288c-0.02513,-0.06067 -0.0441,-0.1232 -0.05691,-0.1876c-0.01281,-0.06439 -0.01921,-0.12942 -0.01921,-0.19509c0,-0.06566 0.0064,-0.13069 0.01921,-0.19509c0.01281,-0.0644 0.03178,-0.12693 0.05691,-0.18759c0.02513,-0.06066 0.05593,-0.11829 0.09241,-0.17289c0.03648,-0.05459 0.07793,-0.1051 0.12436,-0.15153c0.04643,-0.04643 0.09694,-0.08789 0.15154,-0.12437c0.05459,-0.03647 0.11222,-0.06728 0.17289,-0.09241c0.06066,-0.02513 0.12319,-0.04409 0.18759,-0.0569c0.0644,-0.01281 0.12943,-0.01922 0.19509,-0.01922h13.28c0.06567,0 0.1307,0.00641 0.1951,0.01922z"></path>
            <path id="Vector" style="fill:#797979; opacity:1;"
                  d="M10.4051,11.0192c0.0644,0.0128 0.12693,0.03177 0.1876,0.0569c0.06067,0.02513 0.1183,0.05593 0.1729,0.0924c0.0546,0.03647 0.1051,0.07793 0.1515,0.1244c0.0464,0.0464 0.08787,0.0969 0.1244,0.1515c0.03647,0.0546 0.06727,0.11223 0.0924,0.1729c0.02513,0.06067 0.0441,0.1232 0.0569,0.1876c0.0128,0.0644 0.0192,0.12943 0.0192,0.1951c0,0.06567 -0.0064,0.1307 -0.0192,0.1951c-0.0128,0.0644 -0.03177,0.12693 -0.0569,0.1876c-0.02513,0.06067 -0.05593,0.1183 -0.0924,0.1729c-0.03653,0.0546 -0.078,0.1051 -0.1244,0.1515c-0.0464,0.0464 -0.0969,0.08787 -0.1515,0.1244c-0.0546,0.03647 -0.11223,0.06727 -0.1729,0.0924c-0.06067,0.02513 -0.1232,0.0441 -0.1876,0.0569c-0.0644,0.0128 -0.12943,0.0192 -0.1951,0.0192h-10.21c-0.06566,0 -0.13069,-0.0064 -0.19509,-0.0192c-0.0644,-0.0128 -0.12693,-0.03177 -0.18759,-0.0569c-0.06066,-0.02513 -0.11829,-0.05593 -0.17289,-0.0924c-0.0546,-0.03653 -0.10511,-0.078 -0.15154,-0.1244c-0.04643,-0.0464 -0.08788,-0.0969 -0.12436,-0.1515c-0.03648,-0.0546 -0.06728,-0.11223 -0.09241,-0.1729c-0.02513,-0.06067 -0.0441,-0.1232 -0.05691,-0.1876c-0.01281,-0.0644 -0.01921,-0.12943 -0.01921,-0.1951c0,-0.06567 0.0064,-0.1307 0.01921,-0.1951c0.01281,-0.0644 0.03178,-0.12693 0.05691,-0.1876c0.02513,-0.06067 0.05593,-0.1183 0.09241,-0.1729c0.03648,-0.0546 0.07793,-0.1051 0.12436,-0.1515c0.04643,-0.04647 0.09694,-0.08793 0.15154,-0.1244c0.05459,-0.03647 0.11222,-0.06727 0.17289,-0.0924c0.06066,-0.02513 0.12319,-0.0441 0.18759,-0.0569c0.0644,-0.0128 0.12943,-0.0192 0.19509,-0.0192h10.21c0.06567,0 0.1307,0.0064 0.1951,0.0192z"></path>
        </g>
    </g>
</svg>