<svg xmlns="http://www.w3.org/2000/svg" xmlns:xlink="http://www.w3.org/1999/xlink" width="16" height="16"
     viewBox="0 0 16 16" fill="none">
    <g opacity="1" transform="translate(0 0)  rotate(0)">
        <g opacity="1" transform="translate(0 0)  rotate(0)">
            <path id="Rectangle 11" fill-rule="evenodd" style="fill:#32D1F0" opacity="1"
                  d="M8 16L8 16C12.42 16 16 12.42 16 8L16 8C16 3.58 12.42 0 8 0L8 0C3.58 0 0 3.58 0 8L0 8C0 12.42 3.58 16 8 16Z"></path>
        </g>
        <path id="Polygon 2" fill-rule="evenodd" style="fill:#FFFFFF" opacity="1"
              d="M6 5.62L6 10.38C6 11.2 6.93 11.67 7.59 11.19L10.88 8.81C11.43 8.41 11.43 7.59 10.88 7.19L7.59 4.81C6.93 4.33 6 4.8 6 5.62Z"></path>
    </g>
</svg>