<svg xmlns="http://www.w3.org/2000/svg" xmlns:xlink="http://www.w3.org/1999/xlink" width="24" height="24"
     viewBox="0 0 24 24" fill="none">
    <g opacity="1" transform="translate(0 0)  rotate(0)">
        <path id="Rectangle 1" fill-rule="evenodd" style="fill:#F5F5F5" opacity="0"
              d="M0 24L24 24L24 0L0 0L0 24Z"></path>
        <g opacity="1" transform="translate(5 5)  rotate(0)">
            <path id="Vector" style="fill:#414141; opacity:1;"
                  d="M-1,4.32v-2.64c0,-0.60222 0.27998,-1.30999 0.6358,-1.72791c0.44606,-0.52391 1.3106,-0.95209 2.0742,-0.95209h10.58c0.7636,0 1.6281,0.42818 2.0742,0.95209c0.3558,0.41792 0.6358,1.12569 0.6358,1.72791v2.64h-2v-2.64c0,-0.22101 -0.0178,-0.26594 -0.1586,-0.43137c-0.1795,-0.21076 -0.2559,-0.24863 -0.5514,-0.24863h-10.58c-0.29547,0 -0.37194,0.03787 -0.55138,0.24863c-0.14085,0.16543 -0.15862,0.21036 -0.15862,0.43137v2.64z"></path>
            <path id="Vector" style="fill:#414141; opacity:1;"
                  d="M1,9.68005v2.64005c0,0.221 0.01777,0.2659 0.15862,0.4313c0.17944,0.2108 0.25591,0.2487 0.55138,0.2487h10.58c0.2955,0 0.3719,-0.0379 0.5514,-0.2487c0.1408,-0.1654 0.1586,-0.2103 0.1586,-0.4313v-2.64005h2v2.64005c0,0.6022 -0.28,1.3099 -0.6358,1.7279c-0.4461,0.5239 -1.3106,0.9521 -2.0742,0.9521h-10.58c-0.7636,0 -1.62813,-0.4282 -2.0742,-0.9521c-0.35582,-0.418 -0.6358,-1.1257 -0.6358,-1.7279v-2.64005z"></path>
            <path id="Vector" style="fill:#787878; opacity:1;"
                  d="M10.5151,5.98919c0.0644,0.01281 0.12693,0.03177 0.1876,0.0569c0.06067,0.02513 0.1183,0.05593 0.1729,0.09241c0.0546,0.03648 0.1051,0.07793 0.1515,0.12436c0.04647,0.04643 0.08793,0.09695 0.1244,0.15154c0.03647,0.05459 0.06727,0.11222 0.0924,0.17289c0.02513,0.06066 0.0441,0.12319 0.0569,0.18759c0.0128,0.0644 0.0192,0.12943 0.0192,0.19509c0,0.06566 -0.0064,0.13069 -0.0192,0.19509c-0.0128,0.0644 -0.03177,0.12693 -0.0569,0.18759c-0.02513,0.06067 -0.05593,0.1183 -0.0924,0.17289c-0.03647,0.05459 -0.07793,0.10511 -0.1244,0.15154c-0.0464,0.04643 -0.0969,0.08788 -0.1515,0.12436c-0.0546,0.03648 -0.11223,0.06728 -0.1729,0.09241c-0.06067,0.02513 -0.1232,0.0441 -0.1876,0.05691c-0.0644,0.01281 -0.12943,0.01921 -0.1951,0.01921h-6.64001c-0.06566,0 -0.13069,-0.0064 -0.19509,-0.01921c-0.0644,-0.01281 -0.12693,-0.03178 -0.18759,-0.05691c-0.06067,-0.02513 -0.1183,-0.05593 -0.17289,-0.09241c-0.05459,-0.03648 -0.1051,-0.07793 -0.15153,-0.12436c-0.04643,-0.04643 -0.08789,-0.09695 -0.12437,-0.15154c-0.03648,-0.05459 -0.06728,-0.11222 -0.09241,-0.17289c-0.02513,-0.06066 -0.04409,-0.12319 -0.0569,-0.18759c-0.01281,-0.0644 -0.01922,-0.12943 -0.01922,-0.19509c0,-0.06566 0.00641,-0.13069 0.01922,-0.19509c0.01281,-0.0644 0.03177,-0.12693 0.0569,-0.18759c0.02513,-0.06067 0.05593,-0.1183 0.09241,-0.17289c0.03648,-0.05459 0.07794,-0.10511 0.12437,-0.15154c0.04643,-0.04643 0.09694,-0.08788 0.15153,-0.12436c0.05459,-0.03648 0.11222,-0.06728 0.17289,-0.09241c0.06066,-0.02513 0.12319,-0.04409 0.18759,-0.0569c0.0644,-0.01281 0.12943,-0.01922 0.19509,-0.01922h6.64001c0.06567,0 0.1307,0.00641 0.1951,0.01922z"></path>
        </g>
    </g>
</svg>