<svg xmlns="http://www.w3.org/2000/svg" xmlns:xlink="http://www.w3.org/1999/xlink" width="24" height="24"
     viewBox="0 0 24 24" fill="none">
    <g opacity="1" transform="translate(0 0)  rotate(0)">
        <path id="Rectangle 1" fill-rule="evenodd" style="fill:#F5F5F5" opacity="0"
              d="M0 24L24 24L24 0L0 0L0 24Z"></path>
        <g opacity="1" transform="translate(5 5)  rotate(0)">
            <path id="Vector" style="fill:#BEBEBE; opacity:1;"
                  d="M11.7545,10.521l2.9299,2.7499c0.10067,0.09447 0.17843,0.20507 0.2333,0.3318c0.05487,0.12673 0.0823,0.25917 0.0823,0.3973c0,0.06567 -0.0064,0.1307 -0.0192,0.1951c-0.0128,0.0644 -0.03177,0.12693 -0.0569,0.1876c-0.02513,0.06067 -0.05593,0.1183 -0.0924,0.1729c-0.03647,0.0546 -0.07793,0.1051 -0.1244,0.1515c-0.0464,0.0464 -0.0969,0.08787 -0.1515,0.1244c-0.0546,0.03647 -0.11223,0.06727 -0.1729,0.0924c-0.06067,0.02513 -0.1232,0.0441 -0.1876,0.0569c-0.0644,0.0128 -0.12943,0.0192 -0.1951,0.0192c-0.12713,0 -0.2498,-0.0234 -0.368,-0.0702c-0.1182,-0.0468 -0.22363,-0.1137 -0.3163,-0.2007l-2.9299,-2.7498l-0.0001,-0.0002c-0.10073,-0.09447 -0.17853,-0.20507 -0.2334,-0.3318c-0.05487,-0.12673 -0.0823,-0.25917 -0.0823,-0.3973c0,-0.06567 0.0064,-0.1307 0.0192,-0.1951c0.0128,-0.0644 0.03177,-0.12693 0.0569,-0.1876c0.02513,-0.06067 0.05593,-0.1183 0.0924,-0.1729c0.03653,-0.0546 0.078,-0.1051 0.1244,-0.1515c0.0464,-0.04647 0.0969,-0.08793 0.1515,-0.1244c0.0546,-0.03647 0.11223,-0.06727 0.1729,-0.0924c0.06067,-0.02513 0.1232,-0.0441 0.1876,-0.0569c0.0644,-0.0128 0.12943,-0.0192 0.1951,-0.0192c0.12713,0 0.2498,0.0234 0.368,0.0702c0.1182,0.04673 0.22367,0.11363 0.3164,0.2007z"></path>
            <path id="Vector" style="fill:#BEBEBE; opacity:1;"
                  d="M6.48,1c-1.54276,0 -2.77475,0.54046 -3.81131,1.54757c-1.08132,1.05061 -1.66869,2.33725 -1.66869,3.95243c0,1.58876 0.57162,2.85731 1.62815,3.9039c1.0404,1.0305 2.28809,1.5861 3.85185,1.5861c1.5361,0 2.76458,-0.5392 3.7998,-1.5436c1.0819,-1.04982 1.6702,-2.33515 1.6702,-3.9464c0,-1.63767 -0.6042,-2.94099 -1.711,-3.99441c-1.03095,-0.98122 -2.24375,-1.50559 -3.759,-1.50559zM6.48,-1c1.92909,0 3.8488,0.83 5.1378,2.05686c1.3825,1.31576 2.3322,3.36445 2.3322,5.44314c0,2.04717 -0.926,4.0704 -2.2775,5.3818c-1.294,1.2554 -3.2368,2.1082 -5.1925,2.1082c-1.98893,0 -3.9591,-0.8773 -5.25933,-2.1652c-1.32008,-1.3076 -2.22067,-3.30625 -2.22067,-5.3248c0,-2.0501 0.92408,-4.07433 2.275,-5.38687c1.29579,-1.25898 3.24284,-2.11313 5.205,-2.11313z"></path>
        </g>
    </g>
</svg>