<svg xmlns="http://www.w3.org/2000/svg" xmlns:xlink="http://www.w3.org/1999/xlink" width="24" height="24"
     viewBox="0 0 24 24" fill="none">
    <g opacity="1" transform="translate(0 0)  rotate(0)">
        <path id="Rectangle 1" fill-rule="evenodd" style="fill:#F5F5F5" opacity="0"
              d="M0 24L24 24L24 0L0 0L0 24Z"></path>
        <g opacity="1" transform="translate(5 6)  rotate(0)">
            <path id="Vector" style="fill:#414141; opacity:1;"
                  d="M15,4.32v5.95c0,0.8097 -0.4763,1.7164 -1.0499,2.1643c-0.4071,0.3179 -1.0763,0.5657 -1.6401,0.5657h-10.62c-0.61593,-0.0066 -1.32364,-0.298 -1.74098,-0.6592c-0.5204,-0.4503 -0.94902,-1.3136 -0.94902,-2.0708v-8.54c0,-0.80972 0.47629,-1.71643 1.04986,-2.16426c0.40715,-0.3179 1.07638,-0.56574 1.64014,-0.56574h1.12v2h-1.12c-0.20532,0 -0.24705,0.01545 -0.4093,0.14214c-0.23411,0.18279 -0.2807,0.27148 -0.2807,0.58786v8.54c0,0.288 0.04125,0.3711 0.25778,0.5585c0.17117,0.1481 0.22229,0.1692 0.43222,0.1715h10.62c0.2053,0 0.247,-0.0155 0.4093,-0.1421c0.2341,-0.1828 0.2807,-0.2715 0.2807,-0.5879v-5.95z"></path>
            <path id="Vector" style="fill:#787878; opacity:1;"
                  d="M7.72996,-1h4.47004c0.0656,0 0.1306,0.0064 0.195,0.01921c0.0644,0.01281 0.12693,0.03178 0.1876,0.05691c0.06067,0.02513 0.1183,0.05593 0.1729,0.09241c0.0546,0.03648 0.10513,0.07793 0.1516,0.12436c0.0464,0.04643 0.08783,0.09694 0.1243,0.15154c0.03647,0.05459 0.06727,0.11222 0.0924,0.17289c0.02513,0.06066 0.0441,0.12319 0.0569,0.18759c0.01287,0.0644 0.0193,0.12943 0.0193,0.19509c0,0.13454 -0.0261,0.26381 -0.0783,0.38782c-0.0522,0.12401 -0.1264,0.23305 -0.2226,0.32712c0,0 -1.9368,1.89419 -3.6275,3.98675c-0.87022,1.07705 -1.62181,2.1317 -2.03489,3.01998l-1.8135,-0.84334c0.49083,-1.05548 1.38452,-2.30951 2.2927,-3.43356c1.76429,-2.18364 3.78489,-4.15971 3.78489,-4.15971l0.6992,0.71494v1h-4.47004z"></path>
        </g>
    </g>
</svg>